<svg id="Группа_6" data-name="Группа 6" xmlns="http://www.w3.org/2000/svg" width="48" height="48" viewBox="0 0 48 48">
  <defs>
    <style>
      .cls-1 {
        fill: #1d9bc0;
        fill-opacity: 0;
        stroke: beige;
        stroke-linejoin: round;
        stroke-opacity: 0.3;
        stroke-width: 1px;
      }

      .cls-2 {
        fill: #fff;
        fill-rule: evenodd;
      }
    </style>
  </defs>
  <circle class="cls-1" cx="24" cy="24" r="23.5"/>
  <path id="ico" class="cls-2" d="M550.5,1778.82a5.769,5.769,0,0,0-5.638,5.87c0,3.12,5.115,10.4,5.333,10.71l0.2,0.29a0.131,0.131,0,0,0,.1.05,0.133,0.133,0,0,0,.1-0.05l0.2-.29c0.218-.31,5.334-7.59,5.334-10.71A5.769,5.769,0,0,0,550.5,1778.82Zm0,3.77a2.107,2.107,0,1,1-2.02,2.1A2.062,2.062,0,0,1,550.5,1782.59Z" transform="translate(-526.5 -1762.5)"/>
</svg>
