<svg xmlns="http://www.w3.org/2000/svg" width="37" height="37" viewBox="0 0 37 37">
  <defs>
    <style>
      .cls-1 {
        fill: #fff;
        fill-rule: evenodd;
        opacity: 0.5;
      }
    </style>
  </defs>
  <path id="_" data-name="&lt;&gt;" class="cls-1" d="M700.5,1177a18.5,18.5,0,1,1-18.5,18.5A18.5,18.5,0,0,1,700.5,1177Zm-0.354,1.12h0.708a17.029,17.029,0,0,1,17.021,17.03v0.7a17.021,17.021,0,0,1-17.021,17.02h-0.708a17.021,17.021,0,0,1-17.021-17.02v-0.7A17.029,17.029,0,0,1,700.146,1178.12Zm7.845,16.1a1.2,1.2,0,0,1-.371.87l-5.727,5.56a1.3,1.3,0,0,1-1.8,0l-5.727-5.56a1.2,1.2,0,0,1,0-1.74,1.3,1.3,0,0,1,1.8,0l4.829,4.68,4.829-4.68a1.3,1.3,0,0,1,1.8,0A1.214,1.214,0,0,1,707.991,1194.22Z" transform="translate(-682 -1177)"/>
</svg>
