<svg xmlns="http://www.w3.org/2000/svg" width="134" height="37" viewBox="0 0 134 37">
  <defs>
    <style>
      .cls-1 {
        fill: #9a6c33;
        fill-rule: evenodd;
        opacity: 0.8;
      }
    </style>
  </defs>
  <path id="_" data-name="&lt;&gt;" class="cls-1" d="M952.5,2902a18.5,18.5,0,1,1-18.5,18.5A18.5,18.5,0,0,1,952.5,2902Zm-0.01,1.47h0.02a17.021,17.021,0,0,1,17.021,17.02v0.02a17.021,17.021,0,0,1-17.021,17.02h-0.02a17.02,17.02,0,0,1-17.021-17.02v-0.02A17.02,17.02,0,0,1,952.49,2903.47Zm1.288,9.54a1.2,1.2,0,0,0-.873.37l-5.557,5.73a1.287,1.287,0,0,0,0,1.79l5.557,5.73a1.2,1.2,0,0,0,1.746,0,1.3,1.3,0,0,0,0-1.8l-4.686-4.83,4.686-4.82a1.3,1.3,0,0,0,0-1.8A1.2,1.2,0,0,0,953.778,2913.01ZM1049.5,2902a18.5,18.5,0,1,1-18.5,18.5A18.5,18.5,0,0,1,1049.5,2902Zm-0.01,1.47h0.02a17.02,17.02,0,0,1,17.02,17.02v0.02a17.02,17.02,0,0,1-17.02,17.02h-0.02a17.02,17.02,0,0,1-17.02-17.02v-0.02A17.02,17.02,0,0,1,1049.49,2903.47Zm-1.27,9.54a1.189,1.189,0,0,1,.87.37l5.56,5.73a1.293,1.293,0,0,1,0,1.79l-5.56,5.73a1.2,1.2,0,0,1-1.74,0,1.3,1.3,0,0,1,0-1.8l4.68-4.83-4.68-4.82a1.305,1.305,0,0,1,0-1.8A1.2,1.2,0,0,1,1048.22,2913.01Z" transform="translate(-934 -2902)"/>
</svg>
