<svg id="Группа_7" data-name="Группа 7" xmlns="http://www.w3.org/2000/svg" width="45" height="45" viewBox="0 0 45 45">
  <defs>
    <style>
      .cls-1 {
        fill: #b0874f;
      }

      .cls-2 {
        fill: beige;
        fill-rule: evenodd;
      }
    </style>
  </defs>
  <circle class="cls-1" cx="22.5" cy="22.5" r="22.5"/>
  <path class="cls-2" d="M560.993,3640.22a0.665,0.665,0,0,0-.038-0.27,2.274,2.274,0,0,0-.971-0.68c-0.729-.41-1.47-0.8-2.186-1.23a2.658,2.658,0,0,0-1.137-.58c-0.779,0-1.917,2.31-2.607,2.31a2.738,2.738,0,0,1-1.1-.5,12.7,12.7,0,0,1-5.227-5.23,2.679,2.679,0,0,1-.5-1.1c0-.69,2.313-1.82,2.313-2.6a2.609,2.609,0,0,0-.588-1.14c-0.422-.72-0.818-1.46-1.227-2.19a2.3,2.3,0,0,0-.677-0.97,0.825,0.825,0,0,0-.269-0.03,5.725,5.725,0,0,0-1.776.39,3.407,3.407,0,0,0-1.355,1.56,4.871,4.871,0,0,0-.651,2.38,9.87,9.87,0,0,0,.881,3.35,11.815,11.815,0,0,0,1.061,2.23,21.611,21.611,0,0,0,6.134,6.14,12.152,12.152,0,0,0,2.237,1.06,9.978,9.978,0,0,0,3.348.88,4.871,4.871,0,0,0,2.377-.65,3.363,3.363,0,0,0,1.559-1.36A5.629,5.629,0,0,0,560.993,3640.22Z" transform="translate(-529 -3613)"/>
</svg>
