<svg id="Группа_5" data-name="Группа 5" xmlns="http://www.w3.org/2000/svg" width="751" height="31" viewBox="0 0 751 31">
  <defs>
    <style>
      .cls-1 {
        fill: #1d9bc0;
        fill-opacity: 0;
        stroke: #9a6c33;
        stroke-linejoin: round;
        stroke-opacity: 0.5;
        stroke-width: 1px;
      }

      .cls-1, .cls-2 {
        fill-rule: evenodd;
      }

      .cls-2 {
        fill: #9a6c33;
      }
    </style>
  </defs>
  <path class="cls-1" d="M192,97a15,15,0,1,1-15,15A15,15,0,0,1,192,97Zm720,0a15,15,0,1,1-15,15A15,15,0,0,1,912,97Z" transform="translate(-176.5 -96.5)"/>
  <path id="ico" class="cls-2" d="M916.98,114.1a0.435,0.435,0,0,1-.133.381l-1.264,1.258a0.687,0.687,0,0,1-.224.163,0.936,0.936,0,0,1-.271.086l-0.057,0a1.046,1.046,0,0,1-.123,0,4.249,4.249,0,0,1-.585-0.062,4.427,4.427,0,0,1-.989-0.3,8.354,8.354,0,0,1-1.326-.729,9.9,9.9,0,0,1-1.578-1.335,10.527,10.527,0,0,1-1.1-1.258,9.018,9.018,0,0,1-.7-1.111,5.954,5.954,0,0,1-.4-0.925,4.9,4.9,0,0,1-.18-0.715,2.371,2.371,0,0,1-.038-0.472c0.006-.114.009-0.178,0.009-0.191a0.924,0.924,0,0,1,.086-0.271,0.7,0.7,0,0,1,.161-0.224l1.265-1.268a0.419,0.419,0,0,1,.3-0.134,0.359,0.359,0,0,1,.219.071,0.667,0.667,0,0,1,.161.177l1.017,1.935a0.463,0.463,0,0,1,.048.334,0.585,0.585,0,0,1-.162.3l-0.465.467a0.169,0.169,0,0,0-.034.062,0.257,0.257,0,0,0-.014.071,1.708,1.708,0,0,0,.171.459,4.161,4.161,0,0,0,.352.557,9.1,9.1,0,0,0,1.435,1.44,4.36,4.36,0,0,0,.557.357,1.465,1.465,0,0,0,.342.139l0.119,0.023a0.208,0.208,0,0,0,.062-0.014,0.155,0.155,0,0,0,.062-0.033l0.541-.553a0.581,0.581,0,0,1,.4-0.153,0.5,0.5,0,0,1,.257.057h0.01l1.834,1.087A0.478,0.478,0,0,1,916.98,114.1ZM192,107.1a3.68,3.68,0,0,0-3.6,3.749c0,1.989,3.265,6.638,3.4,6.835l0.13,0.184a0.08,0.08,0,0,0,.065.034,0.083,0.083,0,0,0,.065-0.034l0.129-.184c0.14-.2,3.405-4.846,3.405-6.835A3.681,3.681,0,0,0,192,107.1Zm0,2.406a1.344,1.344,0,1,1-1.29,1.343A1.318,1.318,0,0,1,192,109.5Z" transform="translate(-176.5 -96.5)"/>
</svg>
